<svg width="461" height="192" xmlns="http://www.w3.org/2000/svg" xmlns:xlink="http://www.w3.org/1999/xlink" overflow="hidden"><defs><clipPath id="clip0"><rect x="0" y="0" width="461" height="192"/></clipPath></defs><g clip-path="url(#clip0)"><rect x="0" y="0" width="461" height="191.931" fill="#FFFFFF"/><text fill="#132C4E" font-family="Aptos,Aptos_MSFontService,sans-serif" font-weight="700" font-size="173.333" transform="matrix(1 0 0 0.999638 181.62 140)">U</text><path d="M341 68.975 337.392 68.975 337.392 137.95 318.608 137.95 318.608 68.975 315 68.975 328 55.9797Z" stroke="#99C46C" stroke-width="2.00072" stroke-miterlimit="8" fill="#99C46C" fill-rule="evenodd"/><text fill="#132C4E" font-family="Aptos,Aptos_MSFontService,sans-serif" font-weight="700" font-size="173.333" transform="matrix(1 0 0 0.999638 357.317 141)">T</text><path d="M318 36.9866C318 31.4658 322.477 26.9902 328 26.9902 333.523 26.9902 338 31.4658 338 36.9866 338 42.5075 333.523 46.983 328 46.983 322.477 46.983 318 42.5075 318 36.9866Z" stroke="#132C4E" stroke-width="2.00072" stroke-miterlimit="8" fill="#132C4E" fill-rule="evenodd"/><text font-family="Aptos,Aptos_MSFontService,sans-serif" font-weight="400" font-size="5.33333" transform="matrix(1 0 0 0.999638 29.1305 44)">His</text><text font-family="Aptos,Aptos_MSFontService,sans-serif" font-weight="400" font-size="5.33333" transform="matrix(1 0 0 0.999638 38.9674 44)">medical</text><text font-family="Aptos,Aptos_MSFontService,sans-serif" font-weight="400" font-size="5.33333" transform="matrix(1 0 0 0.999638 59.6416 44)">encyclopedia,</text><text font-family="Aptos,Aptos_MSFontService,sans-serif" font-weight="400" font-size="5.33333" transform="matrix(1 0 0 0.999638 94.3208 44)">The</text><text font-family="Aptos,Aptos_MSFontService,sans-serif" font-weight="400" font-size="5.33333" transform="matrix(1 0 0 0.999638 104.658 44)">Canon</text><text font-family="Aptos,Aptos_MSFontService,sans-serif" font-weight="400" font-size="5.33333" transform="matrix(1 0 0 0.999638 122.164 44)">of</text><text font-family="Aptos,Aptos_MSFontService,sans-serif" font-weight="400" font-size="5.33333" transform="matrix(1 0 0 0.999638 128.833 44)">Medicine,</text><text font-family="Aptos,Aptos_MSFontService,sans-serif" font-weight="400" font-size="5.33333" transform="matrix(1 0 0 0.999638 29.1305 50)">was</text><text font-family="Aptos,Aptos_MSFontService,sans-serif" font-weight="400" font-size="5.33333" transform="matrix(1 0 0 0.999638 39.7544 50)">used</text><text font-family="Aptos,Aptos_MSFontService,sans-serif" font-weight="400" font-size="5.33333" transform="matrix(1 0 0 0.999638 52.5457 50)">as</text><text font-family="Aptos,Aptos_MSFontService,sans-serif" font-weight="400" font-size="5.33333" transform="matrix(1 0 0 0.999638 59.3415 50)">a</text><text font-family="Aptos,Aptos_MSFontService,sans-serif" font-weight="400" font-size="5.33333" transform="matrix(1 0 0 0.999638 63.4696 50)">standard</text><text font-family="Aptos,Aptos_MSFontService,sans-serif" font-weight="400" font-size="5.33333" transform="matrix(1 0 0 0.999638 85.6043 50)">text</text><text font-family="Aptos,Aptos_MSFontService,sans-serif" font-weight="400" font-size="5.33333" transform="matrix(1 0 0 0.999638 95.4012 50)">in</text><text font-family="Aptos,Aptos_MSFontService,sans-serif" font-weight="400" font-size="5.33333" transform="matrix(1 0 0 0.999638 101.03 50)">European</text><text font-family="Aptos,Aptos_MSFontService,sans-serif" font-weight="400" font-size="5.33333" transform="matrix(1 0 0 0.999638 124.832 50)">universities</text><text font-family="Aptos,Aptos_MSFontService,sans-serif" font-weight="400" font-size="5.33333" transform="matrix(1 0 0 0.999638 29.1305 63)">for</text><text font-family="Aptos,Aptos_MSFontService,sans-serif" font-weight="400" font-size="5.33333" transform="matrix(1 0 0 0.999638 37.3802 63)">centuries</text><text font-family="Aptos,Aptos_MSFontService,sans-serif" font-weight="400" font-size="5.33333" transform="matrix(1 0 0 0.999638 59.3881 63)">.</text><text font-family="Aptos,Aptos_MSFontService,sans-serif" font-weight="400" font-size="5.33333" transform="matrix(1 0 0 0.999638 62.636 63)">He</text><text font-family="Aptos,Aptos_MSFontService,sans-serif" font-weight="400" font-size="5.33333" transform="matrix(1 0 0 0.999638 71.0524 63)">was</text><text font-family="Aptos,Aptos_MSFontService,sans-serif" font-weight="400" font-size="5.33333" transform="matrix(1 0 0 0.999638 82.143 63)">a</text><text fill="#99C46C" font-family="Aptos,Aptos_MSFontService,sans-serif" font-weight="700" font-size="12" transform="matrix(1 0 0 0.999638 86.7314 63)">Persian</text><text font-family="Aptos,Aptos_MSFontService,sans-serif" font-weight="400" font-size="5.33333" transform="matrix(1 0 0 0.999638 130 63)">polymath</text><text font-family="Aptos,Aptos_MSFontService,sans-serif" font-weight="400" font-size="5.33333" transform="matrix(1 0 0 0.999638 29.1305 71)">who</text><text font-family="Aptos,Aptos_MSFontService,sans-serif" font-weight="400" font-size="5.33333" transform="matrix(1 0 0 0.999638 40.9081 71)">made</text><text font-family="Aptos,Aptos_MSFontService,sans-serif" font-weight="400" font-size="5.33333" transform="matrix(1 0 0 0.999638 56.0203 71)">lasting</text><text font-family="Aptos,Aptos_MSFontService,sans-serif" font-weight="400" font-size="5.33333" transform="matrix(1 0 0 0.999638 73.4732 71)">contributions</text><text font-family="Aptos,Aptos_MSFontService,sans-serif" font-weight="400" font-size="5.33333" transform="matrix(1 0 0 0.999638 106.765 71)">to</text><text font-family="Aptos,Aptos_MSFontService,sans-serif" font-weight="400" font-size="5.33333" transform="matrix(1 0 0 0.999638 113.381 71)">both</text><text font-family="Aptos,Aptos_MSFontService,sans-serif" font-weight="400" font-size="5.33333" transform="matrix(1 0 0 0.999638 125.999 71)">philosophy</text><text font-family="Aptos,Aptos_MSFontService,sans-serif" font-weight="400" font-size="5.33333" transform="matrix(1 0 0 0.999638 29.1305 78)">and</text><text font-family="Aptos,Aptos_MSFontService,sans-serif" font-weight="400" font-size="5.33333" transform="matrix(1 0 0 0.999638 39.6944 78)">medicine</text><text font-family="Aptos,Aptos_MSFontService,sans-serif" font-weight="400" font-size="5.33333" transform="matrix(1 0 0 0.999638 61.3689 78)">.</text><text font-family="Aptos,Aptos_MSFontService,sans-serif" font-weight="400" font-size="5.33333" transform="matrix(1 0 0 0.999638 64.5967 78)">Known</text><text font-family="Aptos,Aptos_MSFontService,sans-serif" font-weight="400" font-size="5.33333" transform="matrix(1 0 0 0.999638 82.163 78)">in</text><text font-family="Aptos,Aptos_MSFontService,sans-serif" font-weight="400" font-size="5.33333" transform="matrix(1 0 0 0.999638 88.2252 78)">the</text><text font-family="Aptos,Aptos_MSFontService,sans-serif" font-weight="400" font-size="5.33333" transform="matrix(1 0 0 0.999638 97.4552 78)">West</text><text font-family="Aptos,Aptos_MSFontService,sans-serif" font-weight="400" font-size="5.33333" transform="matrix(1 0 0 0.999638 111.194 78)">as</text><text font-family="Aptos,Aptos_MSFontService,sans-serif" font-weight="400" font-size="5.33333" transform="matrix(1 0 0 0.999638 118.429 78)">Avicenna,</text><text font-family="Aptos,Aptos_MSFontService,sans-serif" font-weight="400" font-size="5.33333" transform="matrix(1 0 0 0.999638 143.005 78)">this</text><text font-family="Aptos,Aptos_MSFontService,sans-serif" font-weight="400" font-size="5.33333" transform="matrix(1 0 0 0.999638 29.1305 84)">great</text><text font-family="Aptos,Aptos_MSFontService,sans-serif" font-weight="400" font-size="5.33333" transform="matrix(1 0 0 0.999638 44.1893 84)">thinker</text><text font-family="Aptos,Aptos_MSFontService,sans-serif" font-weight="400" font-size="5.33333" transform="matrix(1 0 0 0.999638 63.743 84)">from</text><text font-family="Aptos,Aptos_MSFontService,sans-serif" font-weight="400" font-size="5.33333" transform="matrix(1 0 0 0.999638 77.9615 84)">the</text><text font-family="Aptos,Aptos_MSFontService,sans-serif" font-weight="400" font-size="5.33333" transform="matrix(1 0 0 0.999638 88.6787 84)">Islamic</text><text font-family="Aptos,Aptos_MSFontService,sans-serif" font-weight="400" font-size="5.33333" transform="matrix(1 0 0 0.999638 108.733 84)">Golden</text><text font-family="Aptos,Aptos_MSFontService,sans-serif" font-weight="400" font-size="5.33333" transform="matrix(1 0 0 0.999638 128.953 84)">Age</text><text font-family="Aptos,Aptos_MSFontService,sans-serif" font-weight="400" font-size="5.33333" transform="matrix(1 0 0 0.999638 140.838 84)">lived</text><text font-family="Aptos,Aptos_MSFontService,sans-serif" font-weight="400" font-size="5.33333" transform="matrix(1 0 0 0.999638 29.1305 90)">between</text><text font-family="Aptos,Aptos_MSFontService,sans-serif" font-weight="400" font-size="5.33333" transform="matrix(1 0 0 0.999638 50.7383 90)">980</text><text font-family="Aptos,Aptos_MSFontService,sans-serif" font-weight="400" font-size="5.33333" transform="matrix(1 0 0 0.999638 60.842 90)">and</text><text font-family="Aptos,Aptos_MSFontService,sans-serif" font-weight="400" font-size="5.33333" transform="matrix(1 0 0 0.999638 71.2791 90)">1037</text><text font-family="Aptos,Aptos_MSFontService,sans-serif" font-weight="400" font-size="5.33333" transform="matrix(1 0 0 0.999638 84.2238 90)">CE</text><text font-family="Aptos,Aptos_MSFontService,sans-serif" font-weight="400" font-size="5.33333" transform="matrix(1 0 0 0.999638 90.8929 90)">.</text><text font-family="Aptos,Aptos_MSFontService,sans-serif" font-weight="400" font-size="5.33333" transform="matrix(1 0 0 0.999638 94.0007 90)">His</text><text font-family="Aptos,Aptos_MSFontService,sans-serif" font-weight="400" font-size="5.33333" transform="matrix(1 0 0 0.999638 103.444 90)">most</text><text font-family="Aptos,Aptos_MSFontService,sans-serif" font-weight="400" font-size="5.33333" transform="matrix(1 0 0 0.999638 116.889 90)">famous</text><text font-family="Aptos,Aptos_MSFontService,sans-serif" font-weight="400" font-size="5.33333" transform="matrix(1 0 0 0.999638 136.169 90)">works,</text><text font-family="Aptos,Aptos_MSFontService,sans-serif" font-weight="400" font-size="5.33333" transform="matrix(1 0 0 0.999638 29.1305 103)">The</text><text fill="#99C46C" font-family="Aptos,Aptos_MSFontService,sans-serif" font-weight="700" font-size="12" transform="matrix(1 0 0 0.999638 38.3672 103)">Book</text><text fill="#99C46C" font-family="Aptos,Aptos_MSFontService,sans-serif" font-weight="700" font-size="12" transform="matrix(1 0 0 0.999638 69.3117 103)">of</text><text fill="#99C46C" font-family="Aptos,Aptos_MSFontService,sans-serif" font-weight="700" font-size="12" transform="matrix(1 0 0 0.999638 83.7169 103)">Healing</text><text font-family="Aptos,Aptos_MSFontService,sans-serif" font-weight="400" font-size="5.33333" transform="matrix(1 0 0 0.999638 125.099 103)">,</text><text font-family="Aptos,Aptos_MSFontService,sans-serif" font-weight="400" font-size="5.33333" transform="matrix(1 0 0 0.999638 127.633 103)">isn’t</text><text font-family="Aptos,Aptos_MSFontService,sans-serif" font-weight="400" font-size="5.33333" transform="matrix(1 0 0 0.999638 138.537 103)">about</text><text font-family="Aptos,Aptos_MSFontService,sans-serif" font-weight="400" font-size="5.33333" transform="matrix(1 0 0 0.999638 29.1305 111)">medicine</text><text font-family="Aptos,Aptos_MSFontService,sans-serif" font-weight="400" font-size="5.33333" transform="matrix(1 0 0 0.999638 52.1389 111)">but</text><text font-family="Aptos,Aptos_MSFontService,sans-serif" font-weight="400" font-size="5.33333" transform="matrix(1 0 0 0.999638 61.1421 111)">about</text><text font-family="Aptos,Aptos_MSFontService,sans-serif" font-weight="400" font-size="5.33333" transform="matrix(1 0 0 0.999638 75.9808 111)">philosophy</text><text font-family="Aptos,Aptos_MSFontService,sans-serif" font-weight="400" font-size="5.33333" transform="matrix(1 0 0 0.999638 102.991 111)">and</text><text font-family="Aptos,Aptos_MSFontService,sans-serif" font-weight="400" font-size="5.33333" transform="matrix(1 0 0 0.999638 113.161 111)">science</text><text font-family="Aptos,Aptos_MSFontService,sans-serif" font-weight="400" font-size="5.33333" transform="matrix(1 0 0 0.999638 131.501 111)">.</text><text font-family="Aptos,Aptos_MSFontService,sans-serif" font-weight="400" font-size="5.33333" transform="matrix(1 0 0 0.999638 134.335 111)">He</text><text font-family="Aptos,Aptos_MSFontService,sans-serif" font-weight="400" font-size="5.33333" transform="matrix(1 0 0 0.999638 142.338 111)">was</text><text font-family="Aptos,Aptos_MSFontService,sans-serif" font-weight="400" font-size="5.33333" transform="matrix(1 0 0 0.999638 29.1305 118)">born</text><text font-family="Aptos,Aptos_MSFontService,sans-serif" font-weight="400" font-size="5.33333" transform="matrix(1 0 0 0.999638 41.515 118)">near</text><text font-family="Aptos,Aptos_MSFontService,sans-serif" font-weight="400" font-size="5.33333" transform="matrix(1 0 0 0.999638 53.566 118)">Bukhara</text><text font-family="Aptos,Aptos_MSFontService,sans-serif" font-weight="400" font-size="5.33333" transform="matrix(1 0 0 0.999638 74.4536 118)">in</text><text font-family="Aptos,Aptos_MSFontService,sans-serif" font-weight="400" font-size="5.33333" transform="matrix(1 0 0 0.999638 80.3357 118)">present</text><text font-family="Aptos,Aptos_MSFontService,sans-serif" font-weight="400" font-size="5.33333" transform="matrix(1 0 0 0.999638 98.1755 118)">-</text><text font-family="Aptos,Aptos_MSFontService,sans-serif" font-weight="400" font-size="5.33333" transform="matrix(1 0 0 0.999638 100.009 118)">day</text><text font-family="Aptos,Aptos_MSFontService,sans-serif" font-weight="400" font-size="5.33333" transform="matrix(1 0 0 0.999638 109.726 118)">Uzbekistan</text><text font-family="Aptos,Aptos_MSFontService,sans-serif" font-weight="400" font-size="5.33333" transform="matrix(1 0 0 0.999638 137.283 118)">and</text><text font-family="Aptos,Aptos_MSFontService,sans-serif" font-weight="400" font-size="5.33333" transform="matrix(1 0 0 0.999638 147.673 118)">is</text><text font-family="Aptos,Aptos_MSFontService,sans-serif" font-weight="400" font-size="5.33333" transform="matrix(1 0 0 0.999638 29.1305 124)">often</text><text font-family="Aptos,Aptos_MSFontService,sans-serif" font-weight="400" font-size="5.33333" transform="matrix(1 0 0 0.999638 42.4687 124)">called</text><text font-family="Aptos,Aptos_MSFontService,sans-serif" font-weight="400" font-size="5.33333" transform="matrix(1 0 0 0.999638 57.8076 124)">the</text><text font-family="Aptos,Aptos_MSFontService,sans-serif" font-weight="400" font-size="5.33333" transform="matrix(1 0 0 0.999638 66.4774 124)">“father</text><text font-family="Aptos,Aptos_MSFontService,sans-serif" font-weight="400" font-size="5.33333" transform="matrix(1 0 0 0.999638 83.817 124)">of</text><text font-family="Aptos,Aptos_MSFontService,sans-serif" font-weight="400" font-size="5.33333" transform="matrix(1 0 0 0.999638 89.6524 124)">early</text><text font-family="Aptos,Aptos_MSFontService,sans-serif" font-weight="400" font-size="5.33333" transform="matrix(1 0 0 0.999638 101.99 124)">modern</text><text font-family="Aptos,Aptos_MSFontService,sans-serif" font-weight="400" font-size="5.33333" transform="matrix(1 0 0 0.999638 121.331 124)">medicine</text><text font-family="Aptos,Aptos_MSFontService,sans-serif" font-weight="400" font-size="5.33333" transform="matrix(1 0 0 0.999638 143.005 124)">.</text><text font-family="Aptos,Aptos_MSFontService,sans-serif" font-weight="400" font-size="5.33333" transform="matrix(1 0 0 0.999638 144.506 124)">”</text><path d="M157.645 134.508 194.751 171.078C199.612 175.869 200.272 183.079 196.224 187.183 192.177 191.287 184.955 190.73 180.094 185.939L142.988 149.369C138.127 144.578 137.467 137.368 141.515 133.264 145.562 129.16 152.784 129.717 157.645 134.508Z" stroke="#99C46C" stroke-width="2.00037" stroke-miterlimit="8" fill="#99C46C" fill-rule="evenodd"/><path d="M10 85.4691C10 40.4741 46.4889 3.99853 91.5001 3.99853 136.511 3.99853 173 40.4741 173 85.4691 173 130.464 136.511 166.94 91.5001 166.94 46.4889 166.94 10 130.464 10 85.4691ZM24.3782 85.4691C24.3782 122.526 54.4296 152.567 91.4999 152.567 128.57 152.567 158.622 122.526 158.622 85.4691 158.622 48.4121 128.57 18.3715 91.4999 18.3715 54.4296 18.3715 24.3782 48.4121 24.3782 85.4691Z" stroke="#132C4E" stroke-width="2.00072" stroke-miterlimit="8" fill="#132C4E" fill-rule="evenodd"/></g></svg>